<svg xmlns="http://www.w3.org/2000/svg" viewBox="0 0 1920 1080"><defs><style>.cls-1{fill:#fff;}</style></defs><g id="OBJECTS"><polygon class="cls-1" points="500.28 433.96 415.45 349.13 415.45 433.96 288.2 433.96 288.2 646.04 373.03 730.88 373.03 518.79 500.28 518.79 500.28 646.04 585.12 730.88 585.12 518.79 500.28 433.96"/><path class="cls-1" d="M716.84,360.71V465.77H692.11l-37.27-63.1v63.1H630.11V360.71h24.73l37.27,63.1v-63.1Z"/><path class="cls-1" d="M808.59,387.48v78.29H783.85V463A39,39,0,0,1,766.32,467a40.4,40.4,0,0,1,0-80.79,39,39,0,0,1,17.53,4.07v-2.82Zm-25.83,39.15c0-10.34-6.26-17.23-15.66-17.23s-15.66,6.89-15.66,17.23,6.27,17.22,15.66,17.22S782.76,437,782.76,426.63Z"/><path class="cls-1" d="M822.37,363.84A13.15,13.15,0,1,1,835.52,377,13.23,13.23,0,0,1,822.37,363.84Zm.78,23.64h24.74v78.29H823.15Z"/><path class="cls-1" d="M915.05,387.48l-6.57,26.15c-3.29-2.82-6.58-4.7-8.3-4.7-7.83,0-13,6.11-13,15.19v41.65H862.45V387.48h24.73v6.42a28.75,28.75,0,0,1,19.1-7.67A31.27,31.27,0,0,1,915.05,387.48Z"/><path class="cls-1" d="M914.74,426.63A40.4,40.4,0,1,1,955.13,467,40.49,40.49,0,0,1,914.74,426.63Zm57,0c0-10.34-6.26-17.23-15.66-17.23s-15.65,6.89-15.65,17.23,6.26,17.22,15.65,17.22S971.73,437,971.73,426.63Z"/><path class="cls-1" d="M1088.84,426.63A40.39,40.39,0,0,1,1048.45,467a39,39,0,0,1-17.54-4.07v2.82h-24.74V349.12h24.74V390.3a39,39,0,0,1,17.54-4.07A40.39,40.39,0,0,1,1088.84,426.63Zm-25.52,0c0-10.34-6.26-17.23-15.66-17.23S1032,416.29,1032,426.63s6.26,17.22,15.65,17.22S1063.32,437,1063.32,426.63Z"/><path class="cls-1" d="M1099.48,363.84A13.16,13.16,0,1,1,1112.64,377,13.23,13.23,0,0,1,1099.48,363.84Zm.79,23.64H1125v78.29h-24.73Z"/><path class="cls-1" d="M630.11,503h39c26.15,0,41.8,16.13,41.8,36,0,20-15.65,36.17-41.8,36.17H654.84V608.1H630.11Zm39,49c10.18,0,17.07-5.17,17.07-13,0-7.67-6.89-12.84-17.07-12.84H654.84v25.84Z"/><path class="cls-1" d="M774.15,529.82,767.57,556c-3.29-2.82-6.58-4.7-8.3-4.7-7.83,0-13,6.11-13,15.19V608.1H721.54V529.82h24.74v6.41a28.72,28.72,0,0,1,19.1-7.67A31,31,0,0,1,774.15,529.82Z"/><path class="cls-1" d="M773.83,569a40.4,40.4,0,1,1,40.39,40.39A40.49,40.49,0,0,1,773.83,569Zm57,0c0-10.34-6.26-17.23-15.66-17.23s-15.65,6.89-15.65,17.23,6.26,17.22,15.65,17.22S830.82,579.29,830.82,569Z"/><path class="cls-1" d="M947.78,569a40.39,40.39,0,0,1-40.4,40.39,39,39,0,0,1-17.53-4.07v41.18H865.11V529.82h24.74v2.81a39,39,0,0,1,17.53-4.07A40.4,40.4,0,0,1,947.78,569Zm-25.52,0c0-10.34-6.27-17.23-15.66-17.23s-15.66,6.89-15.66,17.23,6.27,17.22,15.66,17.22S922.26,579.29,922.26,569Z"/><path class="cls-1" d="M1036.71,582.58s-10.81,25.68-41,25.83A41.79,41.79,0,0,1,958.58,584a40.42,40.42,0,1,1,77.5-16.13,4.71,4.71,0,0,1-.16,2.19l-52.29,9.4A14,14,0,0,0,995.69,586c12.83,0,20.51-9.86,20.51-9.86Zm-56.52-21.45,27.71-4.86c-3.76-5.16-10-7.82-15.5-6.88-4.7.78-9.4,4.85-11.59,9.86C980.81,558.94,980.5,559.56,980.19,561.13Z"/><path class="cls-1" d="M1098.24,529.82,1091.66,556c-3.29-2.82-6.58-4.7-8.3-4.7-7.83,0-13,6.11-13,15.19V608.1h-24.74V529.82h24.74v6.41a28.72,28.72,0,0,1,19.1-7.67A31,31,0,0,1,1098.24,529.82Z"/><path class="cls-1" d="M1159.76,600.74a34.57,34.57,0,0,1-22.7,8.61c-13.93,0-24.11-6.26-24.11-22.86v-34.6h-8V529.82h8V503h24.74v26.78h16.12v22.07h-16.12v26.62c0,4.69,2,7.83,5.16,7.83,3.92,0,6.58-2.2,6.58-5.64Z"/><path class="cls-1" d="M1244.78,529.82l-39.61,106.46h-24.74l13.15-35.38-27.09-71.08h24.74l14.56,38.2,14.25-38.2Z"/><path class="cls-1" d="M1310.53,527.78v15.5H1340V568h-29.44v15.34h54.18V608.1H1285.8V503h78.91v24.74Z"/><path class="cls-1" d="M1424.67,608.1l-11.9-19.26-11.9,19.26h-26.3l25-40.4-23.49-37.88h26.31l10.33,16.59,10.33-16.59h26.3l-23.48,37.88,25,40.4Z"/><path class="cls-1" d="M1543.5,569a40.39,40.39,0,0,1-40.4,40.39,39,39,0,0,1-17.53-4.07v41.18h-24.74V529.82h24.74v2.81a39,39,0,0,1,17.53-4.07A40.4,40.4,0,0,1,1543.5,569ZM1518,569c0-10.34-6.27-17.23-15.66-17.23s-15.65,6.89-15.65,17.23,6.26,17.22,15.65,17.22S1518,579.29,1518,569Z"/><path class="cls-1" d="M1551,569a40.4,40.4,0,1,1,40.4,40.39A40.49,40.49,0,0,1,1551,569Zm57,0c0-10.34-6.26-17.23-15.65-17.23s-15.66,6.89-15.66,17.23,6.26,17.22,15.66,17.22S1608,579.29,1608,569Z"/><path class="cls-1" d="M630.11,725c5.26-4.9,33.42-27.61,33.42-39.79,0-6.65-5.73-11.91-13.39-11.91-9.6,0-14.22,8.67-15.7,11.44l-4.15-4.15c1.48-2.77,7.94-13.11,20.5-13.11,11.54,0,19,8.59,19,17.36,0,14.86-24.65,33.79-30.46,39.23h32.22v6.1h-40.9Z"/><path class="cls-1" d="M678,699.21c0-17.54,6.83-31.76,23-31.76s23,14.22,23,31.76-6.84,31.67-23,31.67S678,716.66,678,699.21Zm39.88,0c0-14.59-5-25.94-16.89-25.94s-16.9,11.35-16.9,25.94,5,25.94,16.9,25.94S717.9,713.7,717.9,699.21Z"/><path class="cls-1" d="M729.16,725c5.27-4.9,33.42-27.61,33.42-39.79,0-6.65-5.72-11.91-13.38-11.91-9.6,0-14.22,8.67-15.7,11.44l-4.15-4.15c1.47-2.77,7.94-13.11,20.49-13.11,11.54,0,19,8.59,19,17.36,0,14.86-24.65,33.79-30.46,39.23h32.22v6.1h-40.9Z"/><path class="cls-1" d="M780.12,718l5.36-2.58c1.11,3.6,7.2,9.69,15,9.69s15.32-5.26,15.32-14.4a14.85,14.85,0,0,0-14.77-15.24c-7.39,0-13.66,3.7-15.05,5.45l-5.17-2.12V668.1h39.61v6.09H787v19c2.5-1.66,7.94-3.6,14.13-3.6,11,0,20.86,7.94,20.86,21s-9.6,20.31-21.41,20.31C791.11,730.88,782.62,724.51,780.12,718Z"/></g></svg>